<svg xmlns="http://www.w3.org/2000/svg" xmlns:xlink="http://www.w3.org/1999/xlink" width="500" zoomAndPan="magnify" viewBox="0 0 375 374.999991" height="500" preserveAspectRatio="xMidYMid meet" version="1.0"><defs><g/><clipPath id="eaafe67732"><rect x="0" width="277" y="0" height="69"/></clipPath><clipPath id="17361b1d05"><rect x="0" width="287" y="0" height="29"/></clipPath></defs><g transform="matrix(1, 0, 0, 1, 49, 137)"><g clip-path="url(#eaafe67732)"><g fill="#41c1ba" fill-opacity="1"><g transform="translate(0.751244, 56.399048)"><g><path d="M 5 0 C 4.40625 0 4.109375 -0.300781 4.109375 -0.90625 L 4.109375 -38.46875 C 4.109375 -39.070312 4.40625 -39.375 5 -39.375 L 9.5 -39.375 C 10.03125 -39.375 10.40625 -39.164062 10.625 -38.75 L 26.375 -13 C 26.457031 -12.84375 26.546875 -12.78125 26.640625 -12.8125 C 26.734375 -12.851562 26.78125 -12.953125 26.78125 -13.109375 L 26.78125 -38.46875 C 26.78125 -39.070312 27.078125 -39.375 27.671875 -39.375 L 32.40625 -39.375 C 33 -39.375 33.296875 -39.070312 33.296875 -38.46875 L 33.296875 -0.90625 C 33.296875 -0.300781 33 0 32.40625 0 L 27.78125 0 C 27.257812 0 26.882812 -0.207031 26.65625 -0.625 L 10.90625 -26.546875 C 10.832031 -26.703125 10.75 -26.757812 10.65625 -26.71875 C 10.5625 -26.675781 10.515625 -26.582031 10.515625 -26.4375 L 10.578125 -0.90625 C 10.578125 -0.300781 10.273438 0 9.671875 0 Z M 5 0 "/></g></g></g><g fill="#41c1ba" fill-opacity="1"><g transform="translate(38.097292, 56.399048)"><g><path d="M 16.375 -5.0625 C 17.757812 -5.101562 18.96875 -5.394531 20 -5.9375 C 21.03125 -6.476562 21.863281 -7.21875 22.5 -8.15625 C 22.6875 -8.457031 22.929688 -8.609375 23.234375 -8.609375 C 23.421875 -8.609375 23.585938 -8.550781 23.734375 -8.4375 L 26.4375 -6.296875 C 26.695312 -6.035156 26.828125 -5.789062 26.828125 -5.5625 C 26.828125 -5.414062 26.769531 -5.25 26.65625 -5.0625 C 25.570312 -3.332031 24.09375 -1.976562 22.21875 -1 C 20.34375 -0.03125 18.1875 0.453125 15.75 0.453125 C 12.789062 0.453125 10.304688 -0.25 8.296875 -1.65625 C 6.285156 -3.0625 4.832031 -5.019531 3.9375 -7.53125 C 3.1875 -9.59375 2.8125 -11.921875 2.8125 -14.515625 C 2.8125 -17.097656 3.019531 -19.082031 3.4375 -20.46875 C 4.144531 -23.132812 5.546875 -25.253906 7.640625 -26.828125 C 9.742188 -28.398438 12.296875 -29.1875 15.296875 -29.1875 C 22.304688 -29.1875 26.414062 -25.34375 27.625 -17.65625 C 27.8125 -16.425781 27.941406 -14.890625 28.015625 -13.046875 C 28.015625 -12.453125 27.710938 -12.15625 27.109375 -12.15625 L 9.671875 -12.15625 C 9.453125 -12.15625 9.34375 -12.039062 9.34375 -11.8125 C 9.34375 -10.800781 9.453125 -9.976562 9.671875 -9.34375 C 10.085938 -7.988281 10.875 -6.9375 12.03125 -6.1875 C 13.195312 -5.4375 14.644531 -5.0625 16.375 -5.0625 Z M 15.25 -23.5625 C 13.820312 -23.5625 12.644531 -23.210938 11.71875 -22.515625 C 10.800781 -21.828125 10.175781 -20.863281 9.84375 -19.625 C 9.582031 -18.875 9.429688 -18.085938 9.390625 -17.265625 C 9.359375 -17.046875 9.453125 -16.9375 9.671875 -16.9375 L 20.984375 -16.9375 C 21.203125 -16.9375 21.3125 -17.046875 21.3125 -17.265625 C 21.164062 -18.390625 21.054688 -19.066406 20.984375 -19.296875 C 20.640625 -20.609375 19.972656 -21.644531 18.984375 -22.40625 C 17.992188 -23.175781 16.75 -23.5625 15.25 -23.5625 Z M 15.25 -23.5625 "/></g></g></g><g fill="#41c1ba" fill-opacity="1"><g transform="translate(68.581573, 56.399048)"><g><path d="M 2.25 0 C 1.757812 0 1.515625 -0.164062 1.515625 -0.5 C 1.515625 -0.65625 1.570312 -0.84375 1.6875 -1.0625 L 10.578125 -14.171875 C 10.691406 -14.328125 10.691406 -14.476562 10.578125 -14.625 L 1.6875 -27.671875 C 1.570312 -27.898438 1.515625 -28.085938 1.515625 -28.234375 C 1.515625 -28.578125 1.757812 -28.75 2.25 -28.75 L 7.3125 -28.75 C 7.757812 -28.75 8.113281 -28.5625 8.375 -28.1875 L 14.125 -19.6875 C 14.195312 -19.613281 14.28125 -19.578125 14.375 -19.578125 C 14.46875 -19.578125 14.53125 -19.613281 14.5625 -19.6875 L 20.25 -28.1875 C 20.476562 -28.5625 20.832031 -28.75 21.3125 -28.75 L 26.78125 -28.75 C 27.257812 -28.75 27.5 -28.578125 27.5 -28.234375 C 27.5 -28.085938 27.445312 -27.898438 27.34375 -27.671875 L 18.453125 -14.625 C 18.335938 -14.476562 18.335938 -14.328125 18.453125 -14.171875 L 27.34375 -1.0625 C 27.445312 -0.84375 27.5 -0.65625 27.5 -0.5 C 27.5 -0.164062 27.257812 0 26.78125 0 L 21.71875 0 C 21.226562 0 20.867188 -0.1875 20.640625 -0.5625 L 14.96875 -9.0625 C 14.925781 -9.132812 14.859375 -9.171875 14.765625 -9.171875 C 14.671875 -9.171875 14.585938 -9.132812 14.515625 -9.0625 L 8.78125 -0.5625 C 8.507812 -0.1875 8.148438 0 7.703125 0 Z M 2.25 0 "/></g></g></g><g fill="#41c1ba" fill-opacity="1"><g transform="translate(97.603501, 56.399048)"><g><path d="M 18.734375 -24.359375 C 18.734375 -23.753906 18.429688 -23.453125 17.828125 -23.453125 L 12.375 -23.453125 C 12.144531 -23.453125 12.03125 -23.34375 12.03125 -23.125 L 12.03125 -9.84375 C 12.03125 -8.382812 12.335938 -7.332031 12.953125 -6.6875 C 13.578125 -6.050781 14.566406 -5.734375 15.921875 -5.734375 L 17.375 -5.734375 C 17.976562 -5.734375 18.28125 -5.4375 18.28125 -4.84375 L 18.28125 -1.0625 C 18.28125 -0.46875 17.976562 -0.148438 17.375 -0.109375 L 14.6875 -0.0625 C 11.71875 -0.0625 9.5 -0.578125 8.03125 -1.609375 C 6.570312 -2.640625 5.828125 -4.5625 5.796875 -7.375 L 5.796875 -23.125 C 5.796875 -23.34375 5.679688 -23.453125 5.453125 -23.453125 L 2.53125 -23.453125 C 1.925781 -23.453125 1.625 -23.753906 1.625 -24.359375 L 1.625 -27.84375 C 1.625 -28.445312 1.925781 -28.75 2.53125 -28.75 L 5.453125 -28.75 C 5.679688 -28.75 5.796875 -28.859375 5.796875 -29.078125 L 5.796875 -35.375 C 5.796875 -35.976562 6.09375 -36.28125 6.6875 -36.28125 L 11.140625 -36.28125 C 11.734375 -36.28125 12.03125 -35.976562 12.03125 -35.375 L 12.03125 -29.078125 C 12.03125 -28.859375 12.144531 -28.75 12.375 -28.75 L 17.828125 -28.75 C 18.429688 -28.75 18.734375 -28.445312 18.734375 -27.84375 Z M 18.734375 -24.359375 "/></g></g></g><g fill="#41c1ba" fill-opacity="1"><g transform="translate(118.638781, 56.399048)"><g><path d="M 17.265625 0.453125 C 14.453125 0.453125 11.976562 -0.0976562 9.84375 -1.203125 C 7.707031 -2.316406 6.054688 -3.882812 4.890625 -5.90625 C 3.734375 -7.925781 3.15625 -10.25 3.15625 -12.875 L 3.15625 -26.5 C 3.15625 -29.15625 3.734375 -31.484375 4.890625 -33.484375 C 6.054688 -35.492188 7.707031 -37.050781 9.84375 -38.15625 C 11.976562 -39.269531 14.453125 -39.828125 17.265625 -39.828125 C 20.046875 -39.828125 22.492188 -39.28125 24.609375 -38.1875 C 26.722656 -37.101562 28.363281 -35.625 29.53125 -33.75 C 30.695312 -31.875 31.28125 -29.753906 31.28125 -27.390625 L 31.28125 -27.171875 C 31.28125 -26.566406 30.976562 -26.265625 30.375 -26.265625 L 25.703125 -26.265625 C 25.441406 -26.265625 25.226562 -26.3125 25.0625 -26.40625 C 24.894531 -26.5 24.8125 -26.625 24.8125 -26.78125 L 24.8125 -27.21875 C 24.8125 -29.25 24.125 -30.921875 22.75 -32.234375 C 21.382812 -33.546875 19.554688 -34.203125 17.265625 -34.203125 C 14.984375 -34.203125 13.144531 -33.515625 11.75 -32.140625 C 10.363281 -30.773438 9.671875 -28.96875 9.671875 -26.71875 L 9.671875 -12.65625 C 9.671875 -10.40625 10.398438 -8.59375 11.859375 -7.21875 C 13.328125 -5.851562 15.222656 -5.171875 17.546875 -5.171875 C 19.796875 -5.171875 21.566406 -5.757812 22.859375 -6.9375 C 24.160156 -8.125 24.8125 -9.75 24.8125 -11.8125 L 24.8125 -15.25 C 24.8125 -15.46875 24.695312 -15.578125 24.46875 -15.578125 L 17.828125 -15.578125 C 17.234375 -15.578125 16.9375 -15.878906 16.9375 -16.484375 L 16.9375 -20.1875 C 16.9375 -20.789062 17.234375 -21.09375 17.828125 -21.09375 L 30.375 -21.09375 C 30.976562 -21.09375 31.28125 -20.789062 31.28125 -20.1875 L 31.28125 -13.21875 C 31.28125 -8.90625 30.015625 -5.546875 27.484375 -3.140625 C 24.953125 -0.742188 21.546875 0.453125 17.265625 0.453125 Z M 17.265625 0.453125 "/></g></g></g><g fill="#41c1ba" fill-opacity="1"><g transform="translate(152.72268, 56.399048)"><g><path d="M 16.375 -5.0625 C 17.757812 -5.101562 18.96875 -5.394531 20 -5.9375 C 21.03125 -6.476562 21.863281 -7.21875 22.5 -8.15625 C 22.6875 -8.457031 22.929688 -8.609375 23.234375 -8.609375 C 23.421875 -8.609375 23.585938 -8.550781 23.734375 -8.4375 L 26.4375 -6.296875 C 26.695312 -6.035156 26.828125 -5.789062 26.828125 -5.5625 C 26.828125 -5.414062 26.769531 -5.25 26.65625 -5.0625 C 25.570312 -3.332031 24.09375 -1.976562 22.21875 -1 C 20.34375 -0.03125 18.1875 0.453125 15.75 0.453125 C 12.789062 0.453125 10.304688 -0.25 8.296875 -1.65625 C 6.285156 -3.0625 4.832031 -5.019531 3.9375 -7.53125 C 3.1875 -9.59375 2.8125 -11.921875 2.8125 -14.515625 C 2.8125 -17.097656 3.019531 -19.082031 3.4375 -20.46875 C 4.144531 -23.132812 5.546875 -25.253906 7.640625 -26.828125 C 9.742188 -28.398438 12.296875 -29.1875 15.296875 -29.1875 C 22.304688 -29.1875 26.414062 -25.34375 27.625 -17.65625 C 27.8125 -16.425781 27.941406 -14.890625 28.015625 -13.046875 C 28.015625 -12.453125 27.710938 -12.15625 27.109375 -12.15625 L 9.671875 -12.15625 C 9.453125 -12.15625 9.34375 -12.039062 9.34375 -11.8125 C 9.34375 -10.800781 9.453125 -9.976562 9.671875 -9.34375 C 10.085938 -7.988281 10.875 -6.9375 12.03125 -6.1875 C 13.195312 -5.4375 14.644531 -5.0625 16.375 -5.0625 Z M 15.25 -23.5625 C 13.820312 -23.5625 12.644531 -23.210938 11.71875 -22.515625 C 10.800781 -21.828125 10.175781 -20.863281 9.84375 -19.625 C 9.582031 -18.875 9.429688 -18.085938 9.390625 -17.265625 C 9.359375 -17.046875 9.453125 -16.9375 9.671875 -16.9375 L 20.984375 -16.9375 C 21.203125 -16.9375 21.3125 -17.046875 21.3125 -17.265625 C 21.164062 -18.390625 21.054688 -19.066406 20.984375 -19.296875 C 20.640625 -20.609375 19.972656 -21.644531 18.984375 -22.40625 C 17.992188 -23.175781 16.75 -23.5625 15.25 -23.5625 Z M 15.25 -23.5625 "/></g></g></g><g fill="#41c1ba" fill-opacity="1"><g transform="translate(183.206961, 56.399048)"><g><path d="M 17.265625 -29.1875 C 20.335938 -29.1875 22.785156 -28.285156 24.609375 -26.484375 C 26.429688 -24.691406 27.34375 -22.238281 27.34375 -19.125 L 27.34375 -0.90625 C 27.34375 -0.300781 27.039062 0 26.4375 0 L 21.71875 0 C 21.113281 0 20.8125 -0.300781 20.8125 -0.90625 L 20.8125 -17.78125 C 20.8125 -19.5 20.3125 -20.890625 19.3125 -21.953125 C 18.320312 -23.023438 17.019531 -23.5625 15.40625 -23.5625 C 13.800781 -23.5625 12.5 -23.035156 11.5 -21.984375 C 10.507812 -20.941406 10.015625 -19.554688 10.015625 -17.828125 L 10.015625 -0.90625 C 10.015625 -0.300781 9.710938 0 9.109375 0 L 4.390625 0 C 3.785156 0 3.484375 -0.300781 3.484375 -0.90625 L 3.484375 -27.84375 C 3.484375 -28.445312 3.785156 -28.75 4.390625 -28.75 L 9.109375 -28.75 C 9.710938 -28.75 10.015625 -28.445312 10.015625 -27.84375 L 10.015625 -26.328125 C 10.015625 -26.171875 10.050781 -26.070312 10.125 -26.03125 C 10.195312 -26 10.269531 -26.039062 10.34375 -26.15625 C 11.925781 -28.175781 14.234375 -29.1875 17.265625 -29.1875 Z M 17.265625 -29.1875 "/></g></g></g><g fill="#41c1ba" fill-opacity="1"><g transform="translate(213.803734, 56.399048)"><g/></g></g><g fill="#41c1ba" fill-opacity="1"><g transform="translate(225.052522, 56.399048)"><g><path d="M 28.75 0 C 28.21875 0 27.878906 -0.242188 27.734375 -0.734375 L 25.984375 -6.53125 C 25.953125 -6.71875 25.820312 -6.8125 25.59375 -6.8125 L 10.859375 -6.8125 C 10.628906 -6.8125 10.5 -6.71875 10.46875 -6.53125 L 8.71875 -0.734375 C 8.570312 -0.242188 8.234375 0 7.703125 0 L 2.59375 0 C 2.289062 0 2.070312 -0.09375 1.9375 -0.28125 C 1.8125 -0.46875 1.785156 -0.710938 1.859375 -1.015625 L 13.890625 -38.640625 C 14.046875 -39.128906 14.382812 -39.375 14.90625 -39.375 L 21.484375 -39.375 C 22.015625 -39.375 22.351562 -39.128906 22.5 -38.640625 L 34.59375 -1.015625 C 34.632812 -0.941406 34.65625 -0.828125 34.65625 -0.671875 C 34.65625 -0.222656 34.390625 0 33.859375 0 Z M 12.203125 -12.3125 C 12.171875 -12.050781 12.265625 -11.921875 12.484375 -11.921875 L 23.96875 -11.921875 C 24.1875 -11.921875 24.28125 -12.050781 24.25 -12.3125 L 18.453125 -31.4375 C 18.410156 -31.59375 18.34375 -31.671875 18.25 -31.671875 C 18.15625 -31.671875 18.070312 -31.59375 18 -31.4375 Z M 12.203125 -12.3125 "/></g></g></g><g fill="#41c1ba" fill-opacity="1"><g transform="translate(261.498688, 56.399048)"><g><path d="M 5 0 C 4.40625 0 4.109375 -0.300781 4.109375 -0.90625 L 4.109375 -38.46875 C 4.109375 -39.070312 4.40625 -39.375 5 -39.375 L 9.734375 -39.375 C 10.328125 -39.375 10.625 -39.070312 10.625 -38.46875 L 10.625 -0.90625 C 10.625 -0.300781 10.328125 0 9.734375 0 Z M 5 0 "/></g></g></g></g></g><g transform="matrix(1, 0, 0, 1, 49, 208)"><g clip-path="url(#17361b1d05)"><g fill="#1d4355" fill-opacity="1"><g transform="translate(0.751244, 23.430268)"><g><path d="M 5.171875 0 C 4.929688 0 4.789062 -0.109375 4.75 -0.328125 L 0.515625 -16.015625 C 0.503906 -16.046875 0.5 -16.085938 0.5 -16.140625 C 0.5 -16.234375 0.53125 -16.304688 0.59375 -16.359375 C 0.65625 -16.410156 0.738281 -16.4375 0.84375 -16.4375 L 2.953125 -16.4375 C 3.171875 -16.4375 3.304688 -16.328125 3.359375 -16.109375 L 6.015625 -5.546875 C 6.023438 -5.484375 6.050781 -5.453125 6.09375 -5.453125 C 6.144531 -5.453125 6.179688 -5.484375 6.203125 -5.546875 L 8.71875 -16.109375 C 8.757812 -16.328125 8.890625 -16.4375 9.109375 -16.4375 L 11.21875 -16.4375 C 11.457031 -16.4375 11.597656 -16.328125 11.640625 -16.109375 L 14.328125 -5.546875 C 14.335938 -5.484375 14.363281 -5.453125 14.40625 -5.453125 C 14.457031 -5.453125 14.492188 -5.484375 14.515625 -5.546875 L 17.125 -16.109375 C 17.164062 -16.328125 17.296875 -16.4375 17.515625 -16.4375 L 19.546875 -16.4375 C 19.671875 -16.4375 19.757812 -16.394531 19.8125 -16.3125 C 19.863281 -16.238281 19.875 -16.140625 19.84375 -16.015625 L 15.859375 -0.328125 C 15.804688 -0.109375 15.660156 0 15.421875 0 L 13.390625 0 C 13.171875 0 13.035156 -0.109375 12.984375 -0.328125 L 10.265625 -11.390625 C 10.242188 -11.453125 10.207031 -11.484375 10.15625 -11.484375 C 10.113281 -11.484375 10.085938 -11.453125 10.078125 -11.390625 L 7.46875 -0.328125 C 7.414062 -0.109375 7.28125 0 7.0625 0 Z M 5.171875 0 "/></g></g></g><g fill="#1d4355" fill-opacity="1"><g transform="translate(21.10752, 23.430268)"><g><path d="M 6.578125 0.1875 C 5.335938 0.1875 4.269531 -0.125 3.375 -0.75 C 2.488281 -1.375 1.875 -2.242188 1.53125 -3.359375 C 1.257812 -4.128906 1.125 -5.019531 1.125 -6.03125 C 1.125 -7.03125 1.25 -7.925781 1.5 -8.71875 C 1.863281 -9.8125 2.488281 -10.660156 3.375 -11.265625 C 4.269531 -11.878906 5.34375 -12.1875 6.59375 -12.1875 C 7.789062 -12.1875 8.820312 -11.878906 9.6875 -11.265625 C 10.550781 -10.660156 11.164062 -9.816406 11.53125 -8.734375 C 11.8125 -7.984375 11.953125 -7.09375 11.953125 -6.0625 C 11.953125 -5.070312 11.816406 -4.175781 11.546875 -3.375 C 11.191406 -2.269531 10.578125 -1.398438 9.703125 -0.765625 C 8.828125 -0.128906 7.785156 0.1875 6.578125 0.1875 Z M 6.578125 -2.15625 C 7.148438 -2.15625 7.644531 -2.316406 8.0625 -2.640625 C 8.476562 -2.972656 8.773438 -3.441406 8.953125 -4.046875 C 9.117188 -4.546875 9.203125 -5.203125 9.203125 -6.015625 C 9.203125 -6.773438 9.125 -7.429688 8.96875 -7.984375 C 8.800781 -8.578125 8.5 -9.035156 8.0625 -9.359375 C 7.632812 -9.679688 7.125 -9.84375 6.53125 -9.84375 C 5.9375 -9.84375 5.425781 -9.679688 5 -9.359375 C 4.582031 -9.035156 4.285156 -8.578125 4.109375 -7.984375 C 3.953125 -7.429688 3.875 -6.773438 3.875 -6.015625 C 3.875 -5.242188 3.953125 -4.585938 4.109375 -4.046875 C 4.285156 -3.441406 4.585938 -2.972656 5.015625 -2.640625 C 5.441406 -2.316406 5.960938 -2.15625 6.578125 -2.15625 Z M 6.578125 -2.15625 "/></g></g></g><g fill="#1d4355" fill-opacity="1"><g transform="translate(34.185315, 23.430268)"><g><path d="M 7.046875 -12.140625 C 7.492188 -12.140625 7.910156 -12.054688 8.296875 -11.890625 C 8.484375 -11.796875 8.550781 -11.632812 8.5 -11.40625 L 8.125 -9.46875 C 8.113281 -9.34375 8.070312 -9.265625 8 -9.234375 C 7.925781 -9.203125 7.816406 -9.203125 7.671875 -9.234375 C 7.484375 -9.296875 7.234375 -9.328125 6.921875 -9.328125 C 6.734375 -9.328125 6.585938 -9.316406 6.484375 -9.296875 C 5.828125 -9.265625 5.28125 -9.035156 4.84375 -8.609375 C 4.40625 -8.179688 4.1875 -7.617188 4.1875 -6.921875 L 4.1875 -0.375 C 4.1875 -0.125 4.054688 0 3.796875 0 L 1.828125 0 C 1.578125 0 1.453125 -0.125 1.453125 -0.375 L 1.453125 -11.625 C 1.453125 -11.875 1.578125 -12 1.828125 -12 L 3.796875 -12 C 4.054688 -12 4.1875 -11.875 4.1875 -11.625 L 4.1875 -10.703125 C 4.1875 -10.640625 4.203125 -10.597656 4.234375 -10.578125 C 4.265625 -10.566406 4.296875 -10.59375 4.328125 -10.65625 C 4.984375 -11.644531 5.890625 -12.140625 7.046875 -12.140625 Z M 7.046875 -12.140625 "/></g></g></g><g fill="#1d4355" fill-opacity="1"><g transform="translate(43.013417, 23.430268)"><g><path d="M 1.828125 0 C 1.578125 0 1.453125 -0.125 1.453125 -0.375 L 1.453125 -16.0625 C 1.453125 -16.3125 1.578125 -16.4375 1.828125 -16.4375 L 3.796875 -16.4375 C 4.054688 -16.4375 4.1875 -16.3125 4.1875 -16.0625 L 4.1875 -7.71875 C 4.1875 -7.65625 4.203125 -7.613281 4.234375 -7.59375 C 4.273438 -7.582031 4.3125 -7.601562 4.34375 -7.65625 L 8.078125 -11.796875 C 8.203125 -11.929688 8.359375 -12 8.546875 -12 L 10.796875 -12 C 10.890625 -12 10.96875 -11.972656 11.03125 -11.921875 C 11.09375 -11.878906 11.125 -11.828125 11.125 -11.765625 C 11.125 -11.671875 11.09375 -11.59375 11.03125 -11.53125 L 8.15625 -8.109375 C 8.101562 -8.054688 8.09375 -7.992188 8.125 -7.921875 L 11.59375 -0.453125 L 11.640625 -0.265625 C 11.640625 -0.0859375 11.53125 0 11.3125 0 L 9.234375 0 C 9.023438 0 8.882812 -0.09375 8.8125 -0.28125 L 6.265625 -6.15625 C 6.222656 -6.25 6.160156 -6.253906 6.078125 -6.171875 L 4.25 -4.046875 C 4.207031 -3.984375 4.1875 -3.925781 4.1875 -3.875 L 4.1875 -0.375 C 4.1875 -0.125 4.054688 0 3.796875 0 Z M 1.828125 0 "/></g></g></g><g fill="#1d4355" fill-opacity="1"><g transform="translate(55.269453, 23.430268)"><g/></g></g><g fill="#1d4355" fill-opacity="1"><g transform="translate(59.965247, 23.430268)"><g><path d="M 2.09375 0 C 1.84375 0 1.71875 -0.125 1.71875 -0.375 L 1.71875 -16.0625 C 1.71875 -16.3125 1.84375 -16.4375 2.09375 -16.4375 L 4.0625 -16.4375 C 4.3125 -16.4375 4.4375 -16.3125 4.4375 -16.0625 L 4.4375 -2.484375 C 4.4375 -2.390625 4.484375 -2.34375 4.578125 -2.34375 L 12.328125 -2.34375 C 12.578125 -2.34375 12.703125 -2.21875 12.703125 -1.96875 L 12.703125 -0.375 C 12.703125 -0.125 12.578125 0 12.328125 0 Z M 2.09375 0 "/></g></g></g><g fill="#1d4355" fill-opacity="1"><g transform="translate(73.371746, 23.430268)"><g><path d="M 6.828125 -2.109375 C 7.410156 -2.128906 7.914062 -2.25 8.34375 -2.46875 C 8.78125 -2.695312 9.128906 -3.007812 9.390625 -3.40625 C 9.472656 -3.53125 9.578125 -3.59375 9.703125 -3.59375 C 9.773438 -3.59375 9.84375 -3.566406 9.90625 -3.515625 L 11.03125 -2.625 C 11.144531 -2.519531 11.203125 -2.421875 11.203125 -2.328125 C 11.203125 -2.265625 11.175781 -2.191406 11.125 -2.109375 C 10.675781 -1.390625 10.0625 -0.828125 9.28125 -0.421875 C 8.5 -0.015625 7.597656 0.1875 6.578125 0.1875 C 5.335938 0.1875 4.296875 -0.101562 3.453125 -0.6875 C 2.617188 -1.28125 2.015625 -2.097656 1.640625 -3.140625 C 1.328125 -4.003906 1.171875 -4.976562 1.171875 -6.0625 C 1.171875 -7.132812 1.257812 -7.960938 1.4375 -8.546875 C 1.726562 -9.660156 2.3125 -10.546875 3.1875 -11.203125 C 4.070312 -11.859375 5.140625 -12.1875 6.390625 -12.1875 C 9.316406 -12.1875 11.03125 -10.582031 11.53125 -7.375 C 11.601562 -6.851562 11.65625 -6.210938 11.6875 -5.453125 C 11.6875 -5.203125 11.5625 -5.078125 11.3125 -5.078125 L 4.046875 -5.078125 C 3.941406 -5.078125 3.890625 -5.03125 3.890625 -4.9375 C 3.890625 -4.507812 3.941406 -4.160156 4.046875 -3.890625 C 4.210938 -3.328125 4.535156 -2.890625 5.015625 -2.578125 C 5.503906 -2.265625 6.109375 -2.109375 6.828125 -2.109375 Z M 6.359375 -9.84375 C 5.765625 -9.84375 5.273438 -9.695312 4.890625 -9.40625 C 4.515625 -9.113281 4.253906 -8.710938 4.109375 -8.203125 C 4.003906 -7.878906 3.941406 -7.546875 3.921875 -7.203125 C 3.898438 -7.109375 3.941406 -7.0625 4.046875 -7.0625 L 8.765625 -7.0625 C 8.859375 -7.0625 8.90625 -7.109375 8.90625 -7.203125 C 8.84375 -7.679688 8.796875 -7.96875 8.765625 -8.0625 C 8.617188 -8.601562 8.335938 -9.035156 7.921875 -9.359375 C 7.503906 -9.679688 6.984375 -9.84375 6.359375 -9.84375 Z M 6.359375 -9.84375 "/></g></g></g><g fill="#1d4355" fill-opacity="1"><g transform="translate(86.097361, 23.430268)"><g><path d="M 5.9375 0.140625 C 4.957031 0.140625 4.09375 -0.00390625 3.34375 -0.296875 C 2.601562 -0.585938 2.03125 -0.984375 1.625 -1.484375 C 1.21875 -1.992188 1.015625 -2.5625 1.015625 -3.1875 L 1.015625 -3.3125 C 1.015625 -3.5625 1.140625 -3.6875 1.390625 -3.6875 L 3.265625 -3.6875 C 3.515625 -3.6875 3.640625 -3.628906 3.640625 -3.515625 L 3.640625 -3.359375 C 3.640625 -2.960938 3.851562 -2.617188 4.28125 -2.328125 C 4.71875 -2.046875 5.265625 -1.90625 5.921875 -1.90625 C 6.546875 -1.90625 7.050781 -2.03125 7.4375 -2.28125 C 7.832031 -2.539062 8.03125 -2.867188 8.03125 -3.265625 C 8.03125 -3.617188 7.867188 -3.882812 7.546875 -4.0625 C 7.222656 -4.25 6.703125 -4.445312 5.984375 -4.65625 L 5.09375 -4.9375 C 4.289062 -5.164062 3.613281 -5.410156 3.0625 -5.671875 C 2.519531 -5.941406 2.0625 -6.304688 1.6875 -6.765625 C 1.3125 -7.234375 1.125 -7.828125 1.125 -8.546875 C 1.125 -9.640625 1.550781 -10.507812 2.40625 -11.15625 C 3.257812 -11.8125 4.390625 -12.140625 5.796875 -12.140625 C 6.753906 -12.140625 7.59375 -11.984375 8.3125 -11.671875 C 9.03125 -11.367188 9.585938 -10.945312 9.984375 -10.40625 C 10.390625 -9.875 10.59375 -9.265625 10.59375 -8.578125 C 10.59375 -8.492188 10.554688 -8.425781 10.484375 -8.375 C 10.410156 -8.320312 10.320312 -8.296875 10.21875 -8.296875 L 8.40625 -8.296875 C 8.15625 -8.296875 8.03125 -8.34375 8.03125 -8.4375 L 8.03125 -8.578125 C 8.03125 -8.984375 7.828125 -9.320312 7.421875 -9.59375 C 7.023438 -9.863281 6.484375 -10 5.796875 -10 C 5.191406 -10 4.695312 -9.882812 4.3125 -9.65625 C 3.925781 -9.4375 3.734375 -9.125 3.734375 -8.71875 C 3.734375 -8.34375 3.910156 -8.054688 4.265625 -7.859375 C 4.628906 -7.660156 5.234375 -7.441406 6.078125 -7.203125 L 6.625 -7.0625 C 7.46875 -6.8125 8.171875 -6.5625 8.734375 -6.3125 C 9.296875 -6.0625 9.769531 -5.703125 10.15625 -5.234375 C 10.550781 -4.765625 10.75 -4.160156 10.75 -3.421875 C 10.75 -2.316406 10.3125 -1.445312 9.4375 -0.8125 C 8.5625 -0.175781 7.394531 0.140625 5.9375 0.140625 Z M 5.9375 0.140625 "/></g></g></g><g fill="#1d4355" fill-opacity="1"><g transform="translate(97.695978, 23.430268)"><g><path d="M 5.9375 0.140625 C 4.957031 0.140625 4.09375 -0.00390625 3.34375 -0.296875 C 2.601562 -0.585938 2.03125 -0.984375 1.625 -1.484375 C 1.21875 -1.992188 1.015625 -2.5625 1.015625 -3.1875 L 1.015625 -3.3125 C 1.015625 -3.5625 1.140625 -3.6875 1.390625 -3.6875 L 3.265625 -3.6875 C 3.515625 -3.6875 3.640625 -3.628906 3.640625 -3.515625 L 3.640625 -3.359375 C 3.640625 -2.960938 3.851562 -2.617188 4.28125 -2.328125 C 4.71875 -2.046875 5.265625 -1.90625 5.921875 -1.90625 C 6.546875 -1.90625 7.050781 -2.03125 7.4375 -2.28125 C 7.832031 -2.539062 8.03125 -2.867188 8.03125 -3.265625 C 8.03125 -3.617188 7.867188 -3.882812 7.546875 -4.0625 C 7.222656 -4.25 6.703125 -4.445312 5.984375 -4.65625 L 5.09375 -4.9375 C 4.289062 -5.164062 3.613281 -5.410156 3.0625 -5.671875 C 2.519531 -5.941406 2.0625 -6.304688 1.6875 -6.765625 C 1.3125 -7.234375 1.125 -7.828125 1.125 -8.546875 C 1.125 -9.640625 1.550781 -10.507812 2.40625 -11.15625 C 3.257812 -11.8125 4.390625 -12.140625 5.796875 -12.140625 C 6.753906 -12.140625 7.59375 -11.984375 8.3125 -11.671875 C 9.03125 -11.367188 9.585938 -10.945312 9.984375 -10.40625 C 10.390625 -9.875 10.59375 -9.265625 10.59375 -8.578125 C 10.59375 -8.492188 10.554688 -8.425781 10.484375 -8.375 C 10.410156 -8.320312 10.320312 -8.296875 10.21875 -8.296875 L 8.40625 -8.296875 C 8.15625 -8.296875 8.03125 -8.34375 8.03125 -8.4375 L 8.03125 -8.578125 C 8.03125 -8.984375 7.828125 -9.320312 7.421875 -9.59375 C 7.023438 -9.863281 6.484375 -10 5.796875 -10 C 5.191406 -10 4.695312 -9.882812 4.3125 -9.65625 C 3.925781 -9.4375 3.734375 -9.125 3.734375 -8.71875 C 3.734375 -8.34375 3.910156 -8.054688 4.265625 -7.859375 C 4.628906 -7.660156 5.234375 -7.441406 6.078125 -7.203125 L 6.625 -7.0625 C 7.46875 -6.8125 8.171875 -6.5625 8.734375 -6.3125 C 9.296875 -6.0625 9.769531 -5.703125 10.15625 -5.234375 C 10.550781 -4.765625 10.75 -4.160156 10.75 -3.421875 C 10.75 -2.316406 10.3125 -1.445312 9.4375 -0.8125 C 8.5625 -0.175781 7.394531 0.140625 5.9375 0.140625 Z M 5.9375 0.140625 "/></g></g></g><g fill="#1d4355" fill-opacity="1"><g transform="translate(109.294595, 23.430268)"><g><path d="M 3.125 0.03125 C 2.570312 0.03125 2.117188 -0.140625 1.765625 -0.484375 C 1.421875 -0.835938 1.25 -1.269531 1.25 -1.78125 C 1.25 -2.269531 1.4375 -2.6875 1.8125 -3.03125 C 2.195312 -3.382812 2.632812 -3.5625 3.125 -3.5625 C 3.625 -3.5625 4.066406 -3.382812 4.453125 -3.03125 C 4.847656 -2.6875 5.046875 -2.269531 5.046875 -1.78125 C 5.046875 -1.28125 4.863281 -0.851562 4.5 -0.5 C 4.132812 -0.144531 3.675781 0.03125 3.125 0.03125 Z M 3.125 0.03125 "/></g></g></g><g fill="#1d4355" fill-opacity="1"><g transform="translate(115.633919, 23.430268)"><g/></g></g><g fill="#1d4355" fill-opacity="1"><g transform="translate(120.329714, 23.430268)"><g><path d="M 12 0 C 11.78125 0 11.640625 -0.101562 11.578125 -0.3125 L 10.84375 -2.71875 C 10.832031 -2.800781 10.78125 -2.84375 10.6875 -2.84375 L 4.53125 -2.84375 C 4.4375 -2.84375 4.382812 -2.800781 4.375 -2.71875 L 3.640625 -0.3125 C 3.578125 -0.101562 3.4375 0 3.21875 0 L 1.078125 0 C 0.953125 0 0.863281 -0.0351562 0.8125 -0.109375 C 0.757812 -0.191406 0.75 -0.296875 0.78125 -0.421875 L 5.796875 -16.140625 C 5.859375 -16.335938 6 -16.4375 6.21875 -16.4375 L 8.96875 -16.4375 C 9.1875 -16.4375 9.328125 -16.335938 9.390625 -16.140625 L 14.4375 -0.421875 C 14.457031 -0.390625 14.46875 -0.34375 14.46875 -0.28125 C 14.46875 -0.09375 14.359375 0 14.140625 0 Z M 5.09375 -5.140625 C 5.082031 -5.035156 5.125 -4.984375 5.21875 -4.984375 L 10 -4.984375 C 10.09375 -4.984375 10.132812 -5.035156 10.125 -5.140625 L 7.703125 -13.125 C 7.679688 -13.1875 7.648438 -13.21875 7.609375 -13.21875 C 7.578125 -13.21875 7.546875 -13.1875 7.515625 -13.125 Z M 5.09375 -5.140625 "/></g></g></g><g fill="#1d4355" fill-opacity="1"><g transform="translate(135.544094, 23.430268)"><g><path d="M 8.546875 -11.625 C 8.546875 -11.875 8.671875 -12 8.921875 -12 L 10.875 -12 C 11.125 -12 11.25 -11.875 11.25 -11.625 L 11.25 -0.375 C 11.25 -0.125 11.125 0 10.875 0 L 8.921875 0 C 8.671875 0 8.546875 -0.125 8.546875 -0.375 L 8.546875 -0.984375 C 8.546875 -1.046875 8.523438 -1.082031 8.484375 -1.09375 C 8.453125 -1.113281 8.421875 -1.09375 8.390625 -1.03125 C 7.753906 -0.226562 6.796875 0.171875 5.515625 0.171875 C 4.328125 0.171875 3.328125 -0.171875 2.515625 -0.859375 C 1.710938 -1.554688 1.3125 -2.535156 1.3125 -3.796875 L 1.3125 -11.625 C 1.3125 -11.875 1.4375 -12 1.6875 -12 L 3.65625 -12 C 3.914062 -12 4.046875 -11.875 4.046875 -11.625 L 4.046875 -4.578125 C 4.046875 -3.835938 4.234375 -3.25 4.609375 -2.8125 C 4.992188 -2.375 5.53125 -2.15625 6.21875 -2.15625 C 6.925781 -2.15625 7.488281 -2.375 7.90625 -2.8125 C 8.332031 -3.25 8.546875 -3.835938 8.546875 -4.578125 Z M 8.546875 -11.625 "/></g></g></g><g fill="#1d4355" fill-opacity="1"><g transform="translate(148.246231, 23.430268)"><g><path d="M 7.828125 -10.171875 C 7.828125 -9.921875 7.695312 -9.796875 7.4375 -9.796875 L 5.171875 -9.796875 C 5.078125 -9.796875 5.03125 -9.75 5.03125 -9.65625 L 5.03125 -4.109375 C 5.03125 -3.492188 5.15625 -3.050781 5.40625 -2.78125 C 5.664062 -2.519531 6.078125 -2.390625 6.640625 -2.390625 L 7.25 -2.390625 C 7.5 -2.390625 7.625 -2.265625 7.625 -2.015625 L 7.625 -0.453125 C 7.625 -0.203125 7.5 -0.0664062 7.25 -0.046875 L 6.125 -0.03125 C 4.894531 -0.03125 3.972656 -0.242188 3.359375 -0.671875 C 2.742188 -1.097656 2.429688 -1.898438 2.421875 -3.078125 L 2.421875 -9.65625 C 2.421875 -9.75 2.375 -9.796875 2.28125 -9.796875 L 1.0625 -9.796875 C 0.8125 -9.796875 0.6875 -9.921875 0.6875 -10.171875 L 0.6875 -11.625 C 0.6875 -11.875 0.8125 -12 1.0625 -12 L 2.28125 -12 C 2.375 -12 2.421875 -12.046875 2.421875 -12.140625 L 2.421875 -14.765625 C 2.421875 -15.015625 2.546875 -15.140625 2.796875 -15.140625 L 4.65625 -15.140625 C 4.90625 -15.140625 5.03125 -15.015625 5.03125 -14.765625 L 5.03125 -12.140625 C 5.03125 -12.046875 5.078125 -12 5.171875 -12 L 7.4375 -12 C 7.695312 -12 7.828125 -11.875 7.828125 -11.625 Z M 7.828125 -10.171875 "/></g></g></g><g fill="#1d4355" fill-opacity="1"><g transform="translate(157.027367, 23.430268)"><g><path d="M 6.578125 0.1875 C 5.335938 0.1875 4.269531 -0.125 3.375 -0.75 C 2.488281 -1.375 1.875 -2.242188 1.53125 -3.359375 C 1.257812 -4.128906 1.125 -5.019531 1.125 -6.03125 C 1.125 -7.03125 1.25 -7.925781 1.5 -8.71875 C 1.863281 -9.8125 2.488281 -10.660156 3.375 -11.265625 C 4.269531 -11.878906 5.34375 -12.1875 6.59375 -12.1875 C 7.789062 -12.1875 8.820312 -11.878906 9.6875 -11.265625 C 10.550781 -10.660156 11.164062 -9.816406 11.53125 -8.734375 C 11.8125 -7.984375 11.953125 -7.09375 11.953125 -6.0625 C 11.953125 -5.070312 11.816406 -4.175781 11.546875 -3.375 C 11.191406 -2.269531 10.578125 -1.398438 9.703125 -0.765625 C 8.828125 -0.128906 7.785156 0.1875 6.578125 0.1875 Z M 6.578125 -2.15625 C 7.148438 -2.15625 7.644531 -2.316406 8.0625 -2.640625 C 8.476562 -2.972656 8.773438 -3.441406 8.953125 -4.046875 C 9.117188 -4.546875 9.203125 -5.203125 9.203125 -6.015625 C 9.203125 -6.773438 9.125 -7.429688 8.96875 -7.984375 C 8.800781 -8.578125 8.5 -9.035156 8.0625 -9.359375 C 7.632812 -9.679688 7.125 -9.84375 6.53125 -9.84375 C 5.9375 -9.84375 5.425781 -9.679688 5 -9.359375 C 4.582031 -9.035156 4.285156 -8.578125 4.109375 -7.984375 C 3.953125 -7.429688 3.875 -6.773438 3.875 -6.015625 C 3.875 -5.242188 3.953125 -4.585938 4.109375 -4.046875 C 4.285156 -3.441406 4.585938 -2.972656 5.015625 -2.640625 C 5.441406 -2.316406 5.960938 -2.15625 6.578125 -2.15625 Z M 6.578125 -2.15625 "/></g></g></g><g fill="#1d4355" fill-opacity="1"><g transform="translate(170.105162, 23.430268)"><g><path d="M 14.296875 -12.1875 C 15.503906 -12.1875 16.445312 -11.820312 17.125 -11.09375 C 17.8125 -10.363281 18.15625 -9.351562 18.15625 -8.0625 L 18.15625 -0.375 C 18.15625 -0.125 18.03125 0 17.78125 0 L 15.828125 0 C 15.578125 0 15.453125 -0.125 15.453125 -0.375 L 15.453125 -7.484375 C 15.453125 -8.210938 15.257812 -8.785156 14.875 -9.203125 C 14.488281 -9.628906 13.976562 -9.84375 13.34375 -9.84375 C 12.695312 -9.84375 12.171875 -9.628906 11.765625 -9.203125 C 11.359375 -8.785156 11.15625 -8.222656 11.15625 -7.515625 L 11.15625 -0.375 C 11.15625 -0.125 11.03125 0 10.78125 0 L 8.828125 0 C 8.578125 0 8.453125 -0.125 8.453125 -0.375 L 8.453125 -7.484375 C 8.453125 -8.210938 8.253906 -8.785156 7.859375 -9.203125 C 7.472656 -9.628906 6.957031 -9.84375 6.3125 -9.84375 C 5.71875 -9.84375 5.226562 -9.671875 4.84375 -9.328125 C 4.46875 -8.984375 4.25 -8.515625 4.1875 -7.921875 L 4.1875 -0.375 C 4.1875 -0.125 4.054688 0 3.796875 0 L 1.828125 0 C 1.578125 0 1.453125 -0.125 1.453125 -0.375 L 1.453125 -11.625 C 1.453125 -11.875 1.578125 -12 1.828125 -12 L 3.796875 -12 C 4.054688 -12 4.1875 -11.875 4.1875 -11.625 L 4.1875 -10.984375 C 4.1875 -10.921875 4.203125 -10.878906 4.234375 -10.859375 C 4.273438 -10.847656 4.3125 -10.875 4.34375 -10.9375 C 5.019531 -11.769531 6.003906 -12.1875 7.296875 -12.1875 C 8.066406 -12.1875 8.738281 -12.03125 9.3125 -11.71875 C 9.882812 -11.414062 10.328125 -10.96875 10.640625 -10.375 C 10.671875 -10.332031 10.703125 -10.3125 10.734375 -10.3125 C 10.773438 -10.3125 10.804688 -10.34375 10.828125 -10.40625 C 11.179688 -11 11.664062 -11.441406 12.28125 -11.734375 C 12.894531 -12.035156 13.566406 -12.1875 14.296875 -12.1875 Z M 14.296875 -12.1875 "/></g></g></g><g fill="#1d4355" fill-opacity="1"><g transform="translate(189.569247, 23.430268)"><g><path d="M 6.03125 -12.1875 C 7.019531 -12.1875 7.894531 -12.015625 8.65625 -11.671875 C 9.414062 -11.328125 10 -10.851562 10.40625 -10.25 C 10.8125 -9.644531 11.015625 -8.960938 11.015625 -8.203125 L 11.015625 -0.375 C 11.015625 -0.125 10.890625 0 10.640625 0 L 8.671875 0 C 8.421875 0 8.296875 -0.125 8.296875 -0.375 L 8.296875 -0.96875 C 8.296875 -1.03125 8.28125 -1.0625 8.25 -1.0625 C 8.21875 -1.070312 8.175781 -1.0625 8.125 -1.03125 C 7.28125 -0.21875 6.15625 0.1875 4.75 0.1875 C 3.582031 0.1875 2.628906 -0.109375 1.890625 -0.703125 C 1.148438 -1.296875 0.78125 -2.179688 0.78125 -3.359375 C 0.78125 -4.578125 1.203125 -5.523438 2.046875 -6.203125 C 2.898438 -6.890625 4.101562 -7.234375 5.65625 -7.234375 L 8.15625 -7.234375 C 8.25 -7.234375 8.296875 -7.28125 8.296875 -7.375 L 8.296875 -7.921875 C 8.296875 -8.523438 8.109375 -8.992188 7.734375 -9.328125 C 7.367188 -9.671875 6.828125 -9.84375 6.109375 -9.84375 C 5.554688 -9.84375 5.097656 -9.742188 4.734375 -9.546875 C 4.378906 -9.347656 4.140625 -9.078125 4.015625 -8.734375 C 3.953125 -8.515625 3.8125 -8.414062 3.59375 -8.4375 L 1.484375 -8.6875 C 1.359375 -8.707031 1.265625 -8.742188 1.203125 -8.796875 C 1.140625 -8.847656 1.113281 -8.914062 1.125 -9 C 1.269531 -9.9375 1.789062 -10.703125 2.6875 -11.296875 C 3.59375 -11.890625 4.707031 -12.1875 6.03125 -12.1875 Z M 5.5 -1.96875 C 6.257812 -1.96875 6.914062 -2.171875 7.46875 -2.578125 C 8.019531 -2.984375 8.296875 -3.503906 8.296875 -4.140625 L 8.296875 -5.21875 C 8.296875 -5.3125 8.25 -5.359375 8.15625 -5.359375 L 6.203125 -5.359375 C 5.367188 -5.359375 4.707031 -5.203125 4.21875 -4.890625 C 3.738281 -4.578125 3.5 -4.128906 3.5 -3.546875 C 3.5 -3.046875 3.6875 -2.65625 4.0625 -2.375 C 4.4375 -2.101562 4.914062 -1.96875 5.5 -1.96875 Z M 5.5 -1.96875 "/></g></g></g><g fill="#1d4355" fill-opacity="1"><g transform="translate(201.825283, 23.430268)"><g><path d="M 7.828125 -10.171875 C 7.828125 -9.921875 7.695312 -9.796875 7.4375 -9.796875 L 5.171875 -9.796875 C 5.078125 -9.796875 5.03125 -9.75 5.03125 -9.65625 L 5.03125 -4.109375 C 5.03125 -3.492188 5.15625 -3.050781 5.40625 -2.78125 C 5.664062 -2.519531 6.078125 -2.390625 6.640625 -2.390625 L 7.25 -2.390625 C 7.5 -2.390625 7.625 -2.265625 7.625 -2.015625 L 7.625 -0.453125 C 7.625 -0.203125 7.5 -0.0664062 7.25 -0.046875 L 6.125 -0.03125 C 4.894531 -0.03125 3.972656 -0.242188 3.359375 -0.671875 C 2.742188 -1.097656 2.429688 -1.898438 2.421875 -3.078125 L 2.421875 -9.65625 C 2.421875 -9.75 2.375 -9.796875 2.28125 -9.796875 L 1.0625 -9.796875 C 0.8125 -9.796875 0.6875 -9.921875 0.6875 -10.171875 L 0.6875 -11.625 C 0.6875 -11.875 0.8125 -12 1.0625 -12 L 2.28125 -12 C 2.375 -12 2.421875 -12.046875 2.421875 -12.140625 L 2.421875 -14.765625 C 2.421875 -15.015625 2.546875 -15.140625 2.796875 -15.140625 L 4.65625 -15.140625 C 4.90625 -15.140625 5.03125 -15.015625 5.03125 -14.765625 L 5.03125 -12.140625 C 5.03125 -12.046875 5.078125 -12 5.171875 -12 L 7.4375 -12 C 7.695312 -12 7.828125 -11.875 7.828125 -11.625 Z M 7.828125 -10.171875 "/></g></g></g><g fill="#1d4355" fill-opacity="1"><g transform="translate(210.606419, 23.430268)"><g><path d="M 6.828125 -2.109375 C 7.410156 -2.128906 7.914062 -2.25 8.34375 -2.46875 C 8.78125 -2.695312 9.128906 -3.007812 9.390625 -3.40625 C 9.472656 -3.53125 9.578125 -3.59375 9.703125 -3.59375 C 9.773438 -3.59375 9.84375 -3.566406 9.90625 -3.515625 L 11.03125 -2.625 C 11.144531 -2.519531 11.203125 -2.421875 11.203125 -2.328125 C 11.203125 -2.265625 11.175781 -2.191406 11.125 -2.109375 C 10.675781 -1.390625 10.0625 -0.828125 9.28125 -0.421875 C 8.5 -0.015625 7.597656 0.1875 6.578125 0.1875 C 5.335938 0.1875 4.296875 -0.101562 3.453125 -0.6875 C 2.617188 -1.28125 2.015625 -2.097656 1.640625 -3.140625 C 1.328125 -4.003906 1.171875 -4.976562 1.171875 -6.0625 C 1.171875 -7.132812 1.257812 -7.960938 1.4375 -8.546875 C 1.726562 -9.660156 2.3125 -10.546875 3.1875 -11.203125 C 4.070312 -11.859375 5.140625 -12.1875 6.390625 -12.1875 C 9.316406 -12.1875 11.03125 -10.582031 11.53125 -7.375 C 11.601562 -6.851562 11.65625 -6.210938 11.6875 -5.453125 C 11.6875 -5.203125 11.5625 -5.078125 11.3125 -5.078125 L 4.046875 -5.078125 C 3.941406 -5.078125 3.890625 -5.03125 3.890625 -4.9375 C 3.890625 -4.507812 3.941406 -4.160156 4.046875 -3.890625 C 4.210938 -3.328125 4.535156 -2.890625 5.015625 -2.578125 C 5.503906 -2.265625 6.109375 -2.109375 6.828125 -2.109375 Z M 6.359375 -9.84375 C 5.765625 -9.84375 5.273438 -9.695312 4.890625 -9.40625 C 4.515625 -9.113281 4.253906 -8.710938 4.109375 -8.203125 C 4.003906 -7.878906 3.941406 -7.546875 3.921875 -7.203125 C 3.898438 -7.109375 3.941406 -7.0625 4.046875 -7.0625 L 8.765625 -7.0625 C 8.859375 -7.0625 8.90625 -7.109375 8.90625 -7.203125 C 8.84375 -7.679688 8.796875 -7.96875 8.765625 -8.0625 C 8.617188 -8.601562 8.335938 -9.035156 7.921875 -9.359375 C 7.503906 -9.679688 6.984375 -9.84375 6.359375 -9.84375 Z M 6.359375 -9.84375 "/></g></g></g><g fill="#1d4355" fill-opacity="1"><g transform="translate(223.332022, 23.430268)"><g/></g></g><g fill="#1d4355" fill-opacity="1"><g transform="translate(228.027828, 23.430268)"><g><path d="M 2.09375 0 C 1.84375 0 1.71875 -0.125 1.71875 -0.375 L 1.71875 -16.0625 C 1.71875 -16.3125 1.84375 -16.4375 2.09375 -16.4375 L 4.09375 -16.4375 C 4.3125 -16.4375 4.46875 -16.351562 4.5625 -16.1875 L 8.21875 -10.265625 C 8.25 -10.210938 8.285156 -10.1875 8.328125 -10.1875 C 8.367188 -10.1875 8.394531 -10.210938 8.40625 -10.265625 L 12.125 -16.1875 C 12.21875 -16.351562 12.375 -16.4375 12.59375 -16.4375 L 14.5625 -16.4375 C 14.8125 -16.4375 14.9375 -16.3125 14.9375 -16.0625 L 14.9375 -0.375 C 14.9375 -0.125 14.8125 0 14.5625 0 L 12.59375 0 C 12.34375 0 12.21875 -0.125 12.21875 -0.375 L 12.21875 -11.484375 C 12.21875 -11.546875 12.195312 -11.582031 12.15625 -11.59375 C 12.113281 -11.613281 12.078125 -11.59375 12.046875 -11.53125 L 9.25 -6.953125 C 9.15625 -6.773438 9 -6.6875 8.78125 -6.6875 L 7.875 -6.6875 C 7.644531 -6.6875 7.484375 -6.773438 7.390625 -6.953125 L 4.609375 -11.53125 C 4.578125 -11.59375 4.539062 -11.613281 4.5 -11.59375 C 4.457031 -11.582031 4.4375 -11.546875 4.4375 -11.484375 L 4.4375 -0.375 C 4.4375 -0.125 4.3125 0 4.0625 0 Z M 2.09375 0 "/></g></g></g><g fill="#1d4355" fill-opacity="1"><g transform="translate(244.674432, 23.430268)"><g><path d="M 6.578125 0.1875 C 5.335938 0.1875 4.269531 -0.125 3.375 -0.75 C 2.488281 -1.375 1.875 -2.242188 1.53125 -3.359375 C 1.257812 -4.128906 1.125 -5.019531 1.125 -6.03125 C 1.125 -7.03125 1.25 -7.925781 1.5 -8.71875 C 1.863281 -9.8125 2.488281 -10.660156 3.375 -11.265625 C 4.269531 -11.878906 5.34375 -12.1875 6.59375 -12.1875 C 7.789062 -12.1875 8.820312 -11.878906 9.6875 -11.265625 C 10.550781 -10.660156 11.164062 -9.816406 11.53125 -8.734375 C 11.8125 -7.984375 11.953125 -7.09375 11.953125 -6.0625 C 11.953125 -5.070312 11.816406 -4.175781 11.546875 -3.375 C 11.191406 -2.269531 10.578125 -1.398438 9.703125 -0.765625 C 8.828125 -0.128906 7.785156 0.1875 6.578125 0.1875 Z M 6.578125 -2.15625 C 7.148438 -2.15625 7.644531 -2.316406 8.0625 -2.640625 C 8.476562 -2.972656 8.773438 -3.441406 8.953125 -4.046875 C 9.117188 -4.546875 9.203125 -5.203125 9.203125 -6.015625 C 9.203125 -6.773438 9.125 -7.429688 8.96875 -7.984375 C 8.800781 -8.578125 8.5 -9.035156 8.0625 -9.359375 C 7.632812 -9.679688 7.125 -9.84375 6.53125 -9.84375 C 5.9375 -9.84375 5.425781 -9.679688 5 -9.359375 C 4.582031 -9.035156 4.285156 -8.578125 4.109375 -7.984375 C 3.953125 -7.429688 3.875 -6.773438 3.875 -6.015625 C 3.875 -5.242188 3.953125 -4.585938 4.109375 -4.046875 C 4.285156 -3.441406 4.585938 -2.972656 5.015625 -2.640625 C 5.441406 -2.316406 5.960938 -2.15625 6.578125 -2.15625 Z M 6.578125 -2.15625 "/></g></g></g><g fill="#1d4355" fill-opacity="1"><g transform="translate(257.752227, 23.430268)"><g><path d="M 7.046875 -12.140625 C 7.492188 -12.140625 7.910156 -12.054688 8.296875 -11.890625 C 8.484375 -11.796875 8.550781 -11.632812 8.5 -11.40625 L 8.125 -9.46875 C 8.113281 -9.34375 8.070312 -9.265625 8 -9.234375 C 7.925781 -9.203125 7.816406 -9.203125 7.671875 -9.234375 C 7.484375 -9.296875 7.234375 -9.328125 6.921875 -9.328125 C 6.734375 -9.328125 6.585938 -9.316406 6.484375 -9.296875 C 5.828125 -9.265625 5.28125 -9.035156 4.84375 -8.609375 C 4.40625 -8.179688 4.1875 -7.617188 4.1875 -6.921875 L 4.1875 -0.375 C 4.1875 -0.125 4.054688 0 3.796875 0 L 1.828125 0 C 1.578125 0 1.453125 -0.125 1.453125 -0.375 L 1.453125 -11.625 C 1.453125 -11.875 1.578125 -12 1.828125 -12 L 3.796875 -12 C 4.054688 -12 4.1875 -11.875 4.1875 -11.625 L 4.1875 -10.703125 C 4.1875 -10.640625 4.203125 -10.597656 4.234375 -10.578125 C 4.265625 -10.566406 4.296875 -10.59375 4.328125 -10.65625 C 4.984375 -11.644531 5.890625 -12.140625 7.046875 -12.140625 Z M 7.046875 -12.140625 "/></g></g></g><g fill="#1d4355" fill-opacity="1"><g transform="translate(266.58034, 23.430268)"><g><path d="M 6.828125 -2.109375 C 7.410156 -2.128906 7.914062 -2.25 8.34375 -2.46875 C 8.78125 -2.695312 9.128906 -3.007812 9.390625 -3.40625 C 9.472656 -3.53125 9.578125 -3.59375 9.703125 -3.59375 C 9.773438 -3.59375 9.84375 -3.566406 9.90625 -3.515625 L 11.03125 -2.625 C 11.144531 -2.519531 11.203125 -2.421875 11.203125 -2.328125 C 11.203125 -2.265625 11.175781 -2.191406 11.125 -2.109375 C 10.675781 -1.390625 10.0625 -0.828125 9.28125 -0.421875 C 8.5 -0.015625 7.597656 0.1875 6.578125 0.1875 C 5.335938 0.1875 4.296875 -0.101562 3.453125 -0.6875 C 2.617188 -1.28125 2.015625 -2.097656 1.640625 -3.140625 C 1.328125 -4.003906 1.171875 -4.976562 1.171875 -6.0625 C 1.171875 -7.132812 1.257812 -7.960938 1.4375 -8.546875 C 1.726562 -9.660156 2.3125 -10.546875 3.1875 -11.203125 C 4.070312 -11.859375 5.140625 -12.1875 6.390625 -12.1875 C 9.316406 -12.1875 11.03125 -10.582031 11.53125 -7.375 C 11.601562 -6.851562 11.65625 -6.210938 11.6875 -5.453125 C 11.6875 -5.203125 11.5625 -5.078125 11.3125 -5.078125 L 4.046875 -5.078125 C 3.941406 -5.078125 3.890625 -5.03125 3.890625 -4.9375 C 3.890625 -4.507812 3.941406 -4.160156 4.046875 -3.890625 C 4.210938 -3.328125 4.535156 -2.890625 5.015625 -2.578125 C 5.503906 -2.265625 6.109375 -2.109375 6.828125 -2.109375 Z M 6.359375 -9.84375 C 5.765625 -9.84375 5.273438 -9.695312 4.890625 -9.40625 C 4.515625 -9.113281 4.253906 -8.710938 4.109375 -8.203125 C 4.003906 -7.878906 3.941406 -7.546875 3.921875 -7.203125 C 3.898438 -7.109375 3.941406 -7.0625 4.046875 -7.0625 L 8.765625 -7.0625 C 8.859375 -7.0625 8.90625 -7.109375 8.90625 -7.203125 C 8.84375 -7.679688 8.796875 -7.96875 8.765625 -8.0625 C 8.617188 -8.601562 8.335938 -9.035156 7.921875 -9.359375 C 7.503906 -9.679688 6.984375 -9.84375 6.359375 -9.84375 Z M 6.359375 -9.84375 "/></g></g></g><g fill="#1d4355" fill-opacity="1"><g transform="translate(279.305943, 23.430268)"><g><path d="M 3.125 0.03125 C 2.570312 0.03125 2.117188 -0.140625 1.765625 -0.484375 C 1.421875 -0.835938 1.25 -1.269531 1.25 -1.78125 C 1.25 -2.269531 1.4375 -2.6875 1.8125 -3.03125 C 2.195312 -3.382812 2.632812 -3.5625 3.125 -3.5625 C 3.625 -3.5625 4.066406 -3.382812 4.453125 -3.03125 C 4.847656 -2.6875 5.046875 -2.269531 5.046875 -1.78125 C 5.046875 -1.28125 4.863281 -0.851562 4.5 -0.5 C 4.132812 -0.144531 3.675781 0.03125 3.125 0.03125 Z M 3.125 0.03125 "/></g></g></g></g></g></svg>